<svg width="32" height="32" viewBox="0 0 32 32" fill="none" xmlns="http://www.w3.org/2000/svg">
  <circle cx="16" cy="16" r="14" fill="url(#gradient)"/>
  <path d="M5.5 20.5C6.2 22.4 8.7 23.4 12 23.4C14.2 23.4 16.7 22.9 19.3 21.9C25.7 19.6 30 15.1 28.8 11.9C27.1 7.2 22.5 3.8 17 3.8C10.2 3.8 4.7 9.3 4.7 16.1C4.7 17.6 5 19.1 5.5 20.5Z" fill="white"/>
  <path d="M27 18.5C25.1 20.5 22.2 22.3 18.9 23.5C16.3 24.4 13.6 24.9 11.2 24.9C9.4 24.9 7.8 24.6 6.6 24C8.8 26.9 12.3 28.7 16.2 28.7C23 28.7 28.5 23.2 28.5 16.4C28.5 16.2 28.5 16.1 28.5 15.9C28.1 16.7 27.5 17.6 27 18.5Z" fill="white" fill-opacity="0.8"/>
  <defs>
    <linearGradient id="gradient" x1="6" y1="6" x2="26" y2="26" gradientUnits="userSpaceOnUse">
      <stop stop-color="#2C61F9"/>
      <stop offset="1" stop-color="#8B5CF6"/>
    </linearGradient>
  </defs>
</svg>
